<?xml version="1.0" encoding="UTF-8"?><svg id="Layer_1" xmlns="http://www.w3.org/2000/svg" viewBox="0 0 123.86 31.51"><defs><style>.cls-1{fill:#fff;}</style></defs><path class="cls-1" d="M11.89,31.51c-2.63,0-4.72-.74-6.26-2.21-1.54-1.47-2.3-3.41-2.27-5.82l.17-8.44H0v-5.34H3.61l.04-4.37h6.39l-.04,4.37h6.68v5.34h-6.76l-.13,7.73c0,1.01,.27,1.79,.8,2.35,.53,.56,1.33,.84,2.4,.84,.62,0,1.21-.08,1.79-.23,.57-.15,1.17-.46,1.79-.9l1.85,4.92c-1.43,1.18-3.6,1.76-6.51,1.76Z"/><path class="cls-1" d="M40.84,9.79V31.09h-6.47l.21-3.19c-1.54,2.41-3.82,3.61-6.85,3.61-1.91,0-3.53-.43-4.87-1.3-1.34-.87-2.37-2.07-3.07-3.61-.7-1.54-1.05-3.3-1.05-5.29,0-2.38,.49-4.47,1.47-6.26s2.3-3.19,3.95-4.18,3.5-1.49,5.55-1.49c1.34,0,2.53,.27,3.57,.82,1.04,.55,1.83,1.27,2.39,2.16l.55-2.56h4.62Zm-10.5,5.17c-1.54,0-2.75,.57-3.63,1.72-.88,1.15-1.32,2.62-1.32,4.41,0,1.54,.34,2.73,1.03,3.57,.69,.84,1.62,1.26,2.79,1.26,1.43,0,2.65-.59,3.68-1.76s1.53-2.72,1.53-4.62c0-1.43-.36-2.55-1.09-3.36-.73-.81-1.72-1.22-2.98-1.22Z"/><path class="cls-1" d="M52.52,31.51c-2.16,0-3.82-.59-4.98-1.79s-1.74-2.92-1.74-5.19V0h6.43V24.08c0,1.29,.6,1.93,1.81,1.93,.64,0,1.19-.15,1.64-.46l1.55,4.58c-.48,.39-1.13,.72-1.97,.99-.84,.27-1.75,.4-2.73,.4Z"/><path class="cls-1" d="M69.12,31.51c-2.38,0-4.44-.44-6.18-1.32-1.74-.88-3.08-2.13-4.03-3.74s-1.43-3.52-1.43-5.74,.48-4.22,1.45-5.92c.97-1.71,2.27-3.04,3.91-3.99,1.64-.95,3.49-1.43,5.57-1.43,2.35,0,4.27,.53,5.76,1.6,1.48,1.07,2.51,2.57,3.09,4.52,.57,1.95,.69,4.21,.36,6.79h-13.57c.17,1.06,.73,1.95,1.68,2.67,.95,.71,2.25,1.07,3.91,1.07,.76,0,1.55-.16,2.39-.48,.84-.32,1.55-.8,2.14-1.45l3.57,3.78c-.92,1.12-2.07,2.01-3.42,2.67-1.36,.66-3.09,.99-5.19,.99Zm-.59-17.48c-1.12,0-2.07,.34-2.84,1.01-.77,.67-1.28,1.61-1.53,2.81h8.02c.03-1.32-.29-2.28-.95-2.9s-1.56-.92-2.71-.92Z"/><path class="cls-1" d="M81.55,31.09V9.71h6.39l-.29,4.58c.87-1.57,1.98-2.78,3.34-3.63,1.36-.85,2.88-1.28,4.56-1.28,2.55,0,4.45,.86,5.71,2.58,1.26,1.72,1.88,4.2,1.85,7.42l-.08,11.72h-6.43l.08-11.26c.03-1.46-.19-2.57-.65-3.34-.46-.77-1.2-1.16-2.21-1.16-.84,0-1.61,.25-2.31,.74-.7,.49-1.31,1.32-1.83,2.5-.52,1.18-.93,2.79-1.24,4.83-.31,2.05-.48,4.61-.5,7.69h-6.39Z"/><path class="cls-1" d="M117.35,31.51c-2.63,0-4.72-.74-6.26-2.21-1.54-1.47-2.3-3.41-2.27-5.82l.17-8.44h-3.53v-5.34h3.61l.04-4.37h6.39l-.04,4.37h6.68v5.34h-6.76l-.13,7.73c0,1.01,.27,1.79,.8,2.35,.53,.56,1.33,.84,2.4,.84,.62,0,1.21-.08,1.79-.23,.57-.15,1.17-.46,1.79-.9l1.85,4.92c-1.43,1.18-3.6,1.76-6.51,1.76Z"/></svg>